<svg id="email" xmlns="http://www.w3.org/2000/svg" width="39.555" height="27.812" viewBox="0 0 39.555 27.812">
  <g id="Group_32" data-name="Group 32" transform="translate(0 0)">
    <path id="Path_85" data-name="Path 85" d="M36.079,76H3.477A3.481,3.481,0,0,0,0,79.477v20.859a3.481,3.481,0,0,0,3.477,3.477h32.6a3.481,3.481,0,0,0,3.477-3.477V79.477A3.481,3.481,0,0,0,36.079,76Zm-.534,2.318L20.676,93.235a1.353,1.353,0,0,1-1.8,0L4.01,78.318ZM2.318,99.91V79.9l9.971,10Zm1.693,1.585,9.915-9.947,3.313,3.324a3.668,3.668,0,0,0,5.079,0l3.313-3.324,9.914,9.947ZM37.237,99.91l-9.971-10,9.971-10Z" transform="translate(0 -76)" fill="#fff"/>
  </g>
</svg>
