<svg id="Group_7" data-name="Group 7" xmlns="http://www.w3.org/2000/svg" xmlns:xlink="http://www.w3.org/1999/xlink" width="190.971" height="105.396" viewBox="0 0 190.971 105.396">
  <defs>
    <clipPath id="clip-path">
      <rect id="Rectangle_53" data-name="Rectangle 53" width="190.971" height="105.396" transform="translate(0 0)" fill="none"/>
    </clipPath>
  </defs>
  <g id="Group_30" data-name="Group 30" clip-path="url(#clip-path)">
    <path id="Path_80" data-name="Path 80" d="M190.736,41.658V35.892H160.845a16.432,16.432,0,1,0,0,32.864h29.891V62.988H160.845a10.665,10.665,0,1,1,0-21.33Zm-70.116,0H140.9V35.892H94.572v5.766h20.281v27.1h5.767Zm-41.718,0a3.9,3.9,0,0,1,3.755,2.888h5.854A9.69,9.69,0,0,0,78.9,35.892H51.907a9.668,9.668,0,0,0,0,19.335H78.9a3.9,3.9,0,1,1,0,7.794H51.907a3.923,3.923,0,0,1-3.757-2.88H42.3a9.7,9.7,0,0,0,8.858,8.622H79.661a9.667,9.667,0,0,0-.759-19.3H51.907a3.9,3.9,0,0,1,0-7.8Z" fill="#fff"/>
    <path id="Path_81" data-name="Path 81" d="M56.3,105.4A56.3,56.3,0,0,1,16.409,9.37a3.89,3.89,0,1,1,5.512,5.49,48.519,48.519,0,0,0,68.734,68.5,3.89,3.89,0,0,1,5.509,5.494A55.924,55.924,0,0,1,56.3,105.4" fill="#e27015"/>
    <path id="Path_82" data-name="Path 82" d="M56.3,98.194A49.1,49.1,0,1,1,56.3,0a3.89,3.89,0,1,1,0,7.779,41.318,41.318,0,1,0,0,82.635,3.889,3.889,0,1,1,0,7.779" fill="#e0e1e3"/>
    <path id="Path_83" data-name="Path 83" d="M30.443,80.94A3.879,3.879,0,0,1,27.8,79.906,41.969,41.969,0,0,1,56.3,7.128a41.652,41.652,0,0,1,30,12.618,3.89,3.89,0,1,1-5.56,5.441A34.189,34.189,0,0,0,22.111,49.1a34.293,34.293,0,0,0,10.975,25.1,3.89,3.89,0,0,1-2.643,6.745" fill="#00953a"/>
    <path id="Path_84" data-name="Path 84" d="M188.527,89.247h2.444c-1.381-4.726-2.782-12.938-9.118-12.938s-7.735,8.212-9.119,12.938h2.443c.986-3.241,2.335-10.668,6.676-10.668s5.689,7.427,6.674,10.668m-19.28-12.938h-2.272V89.247h2.272ZM147.094,86.976v-8.4h9.5a4.2,4.2,0,0,1,0,8.4Zm15.965-4.2a6.488,6.488,0,0,0-6.468-6.469H144.824V89.247h11.767a6.488,6.488,0,0,0,6.468-6.469M124.92,80.529l14.671,8.347a.431.431,0,0,0,.647-.376V76.309h-2.269v8.3a.432.432,0,0,1-.647.375l-14.583-8.308a.438.438,0,0,0-.432,0,.427.427,0,0,0-.215.373l-.086,12.2h2.27v-8.34a.425.425,0,0,1,.216-.375.414.414,0,0,1,.428,0m-7.457-4.22h-2.269V89.247h2.269Z" fill="#fff"/>
  </g>
</svg>
