<svg xmlns="http://www.w3.org/2000/svg" width="96.696" height="105.917" viewBox="0 0 96.696 105.917">
  <g id="Group_42" data-name="Group 42" transform="translate(-1120.471 -2066.5)">
    <g id="Group_35" data-name="Group 35" transform="translate(-3)">
      <path id="Path_11" data-name="Path 11" d="M216.361,261.643a1.942,1.942,0,0,0-1.057-.309,1.976,1.976,0,1,0,1.057.309" transform="translate(942.202 1846.298)" fill="#e78625"/>
      <line id="Line_4" data-name="Line 4" y2="13.009" transform="translate(1169.333 2070.971)" fill="none" stroke="#757575" stroke-linecap="round" stroke-linejoin="round" stroke-width="5"/>
      <line id="Line_5" data-name="Line 5" y2="13.009" transform="translate(1169.333 2154.937)" fill="none" stroke="#757575" stroke-linecap="round" stroke-linejoin="round" stroke-width="5"/>
      <line id="Line_6" data-name="Line 6" x2="8.363" y2="8.363" transform="translate(1131.941 2086.008)" fill="none" stroke="#757575" stroke-linecap="round" stroke-linejoin="round" stroke-width="5"/>
      <line id="Line_7" data-name="Line 7" x2="8.363" y2="8.363" transform="translate(1198.363 2146.516)" fill="none" stroke="#757575" stroke-linecap="round" stroke-linejoin="round" stroke-width="5"/>
      <line id="Line_8" data-name="Line 8" x1="8.363" y2="8.363" transform="translate(1198.363 2086.008)" fill="none" stroke="#757575" stroke-linecap="round" stroke-linejoin="round" stroke-width="5"/>
      <line id="Line_9" data-name="Line 9" x1="8.363" y2="8.363" transform="translate(1131.941 2146.516)" fill="none" stroke="#757575" stroke-linecap="round" stroke-linejoin="round" stroke-width="5"/>
      <path id="Path_12" data-name="Path 12" d="M100.058,193.624S82.821,219.247,56.7,219.247s-43.363-25.623-43.363-25.623S30.57,168,56.7,168,100.058,193.624,100.058,193.624Z" transform="translate(1112.638 1925.834)" fill="none" stroke="#757575" stroke-linecap="round" stroke-linejoin="round" stroke-width="5"/>
      <path id="Path_13" data-name="Path 13" d="M210.133,235.7c.071-.028.142-.053.213-.079s.158-.057.237-.085.142-.049.215-.073c.093-.031.189-.063.284-.093.122-.037.245-.075.369-.108s.242-.069.367-.1.26-.065.39-.095.242-.055.365-.079c.1-.022.2-.041.3-.059s.173-.032.26-.045c.047-.01.1-.018.146-.024.089-.016.178-.028.266-.039.024,0,.045-.008.069-.01.075-.012.152-.022.229-.032s.166-.02.248-.027l.118-.012c.085-.01.171-.018.256-.024.045,0,.091-.008.136-.01s.116-.01.174-.012c.085-.006.171-.01.256-.014.11-.006.221-.01.333-.012.134,0,.272-.006.408-.006a15.771,15.771,0,0,1,13.864,23.284c-.12.221-.245.44-.375.653-.067.112-.136.221-.207.331-.126.2-.256.39-.39.581-.014.02-.028.037-.041.057a14.634,14.634,0,0,1-.923,1.173q-.37.429-.773.832c-.242.242-.493.479-.751.7a15.685,15.685,0,0,1-3.609,2.385c-.217.1-.436.2-.658.3-.471.2-.956.377-1.449.53a15.449,15.449,0,0,1-1.512.388A15.778,15.778,0,0,1,200,250.435c0-.136,0-.272.006-.406,0-.11.006-.219.012-.329s.01-.205.016-.306l.006-.089c.008-.095.014-.189.024-.284,0-.024,0-.045.006-.069.01-.112.022-.225.036-.335v0c.014-.118.028-.237.045-.355.012-.089.024-.177.039-.266.016-.118.035-.233.057-.349,0-.031.01-.061.016-.093" transform="translate(953.565 1869.023)" fill="none" stroke="#e78625" stroke-linecap="round" stroke-linejoin="round" stroke-width="5"/>
      <circle id="Ellipse_2" data-name="Ellipse 2" cx="5.913" cy="5.913" r="5.913" transform="translate(1163.42 2113.545)" fill="none" stroke="#e78625" stroke-linecap="round" stroke-linejoin="round" stroke-width="5"/>
    </g>
    <rect id="Rectangle_74" data-name="Rectangle 74" width="90.667" height="100.916" transform="translate(1124 2069)" fill="none" stroke="rgba(0,0,0,0)" stroke-width="5"/>
  </g>
</svg>
