<svg xmlns="http://www.w3.org/2000/svg" width="110.759" height="101" viewBox="0 0 110.759 101">
  <g id="Group_44" data-name="Group 44" transform="translate(-697 -2069)">
    <g id="Group_34" data-name="Group 34" transform="translate(1)">
      <path id="Path_23" data-name="Path 23" d="M180.3,159.241a20,20,0,1,1,20-20.008,20.028,20.028,0,0,1-20,20.008Zm-4.319-14.149a9.419,9.419,0,0,0-4.966,7.381l-.04.393.331.217a16.3,16.3,0,0,0,8.973,2.68h.058a16.265,16.265,0,0,0,8.967-2.683l.324-.213-.033-.386a9.187,9.187,0,0,0-4.943-7.407l-.3-.155-.3.153a8.22,8.22,0,0,1-7.473.015l-.3-.153Zm4.2-22.509a16.548,16.548,0,0,0-16.413,16.649,16.222,16.222,0,0,0,3.362,10l.723.945.406-1.118a13.124,13.124,0,0,1,4.772-6.223l.5-.349-.315-.522a8.36,8.36,0,0,1,.462-9.276,8.286,8.286,0,0,1,13.729,9.24l-.316.525.5.348a12.79,12.79,0,0,1,4.765,6.218l.4,1.136.73-.958a16.221,16.221,0,0,0,3.336-9.965c0-.082,0-.162,0-.241A16.572,16.572,0,0,0,180.3,122.582h-.119Zm.118,10.3a4.813,4.813,0,1,0,4.813,4.813,4.818,4.818,0,0,0-4.813-4.813" transform="translate(570.503 1975.652)" fill="#e78625"/>
      <path id="Path_24" data-name="Path 24" d="M116.4,47.192a1.731,1.731,0,0,1-.577-.1l-4.46-1.571L106.9,47.093a1.728,1.728,0,0,1-.577.1h-.049a1.737,1.737,0,0,1-1.687-1.777l.115-4.728-2.869-3.76a1.736,1.736,0,0,1,.884-2.719l4.529-1.352,2.685-3.892a1.736,1.736,0,0,1,2.859,0l2.688,3.891,4.529,1.352a1.736,1.736,0,0,1,.883,2.719l-2.871,3.76.116,4.728a1.738,1.738,0,0,1-1.736,1.779m-5.038-5.247a1.734,1.734,0,0,1,.576.1l2.663.938-.069-2.822a1.74,1.74,0,0,1,.356-1.1L116.6,36.82l-2.708-.806a1.752,1.752,0,0,1-.934-.678l-1.6-2.324-1.6,2.324a1.743,1.743,0,0,1-.933.679l-2.71.806,1.719,2.243a1.742,1.742,0,0,1,.356,1.1l-.069,2.822,2.664-.937a1.73,1.73,0,0,1,.577-.1" transform="translate(616.555 2046.913)" fill="#e78625"/>
      <path id="Path_25" data-name="Path 25" d="M327.268,47.338a1.73,1.73,0,0,1-.576-.1l-4.461-1.571-4.46,1.571a1.728,1.728,0,0,1-.577.1h-.053a1.736,1.736,0,0,1-1.683-1.779l.114-4.727-2.868-3.76a1.737,1.737,0,0,1,.884-2.719L318.119,33l2.689-3.9a1.842,1.842,0,0,1,.336-.338,1.793,1.793,0,0,1,2.514.333l2.691,3.9,4.529,1.352a1.737,1.737,0,0,1,.884,2.718l-2.872,3.76L329,45.559a1.737,1.737,0,0,1-1.736,1.779m-5.037-5.248a1.727,1.727,0,0,1,.577.1l2.664.937L325.4,40.3a1.737,1.737,0,0,1,.355-1.1l1.714-2.243-2.7-.806a1.755,1.755,0,0,1-.934-.678l-1.6-2.324-1.6,2.324a1.754,1.754,0,0,1-.933.678l-2.707.807,1.719,2.243a1.745,1.745,0,0,1,.353,1.1l-.069,2.821,2.662-.937a1.728,1.728,0,0,1,.577-.1" transform="translate(451.46 2046.768)" fill="#e78625"/>
      <path id="Path_26" data-name="Path 26" d="M221.827,18.939a1.736,1.736,0,0,1-.576-.1l-4.461-1.57-4.462,1.57a1.733,1.733,0,0,1-.577.1h-.05a1.737,1.737,0,0,1-1.686-1.778l.116-4.727-2.87-3.759a1.737,1.737,0,0,1,.883-2.72L212.673,4.6,215.366.7A1.8,1.8,0,0,1,215.7.371,1.793,1.793,0,0,1,218.211.7l2.7,3.9,4.529,1.351a1.739,1.739,0,0,1,.883,2.72l-2.872,3.76.114,4.728a1.737,1.737,0,0,1-1.736,1.779M215.185,7.081a1.736,1.736,0,0,1-.933.678l-2.708.807,1.719,2.242a1.746,1.746,0,0,1,.356,1.1l-.069,2.823,2.663-.938a1.743,1.743,0,0,1,1.154,0l2.662.938-.068-2.823a1.75,1.75,0,0,1,.356-1.1l1.715-2.242-2.706-.807a1.737,1.737,0,0,1-.933-.678l-1.6-2.323Z" transform="translate(534.015 2069)" fill="#e78625"/>
      <path id="Path_27" data-name="Path 27" d="M347.361,139.368c.883-12.5,1.216-24.29,1.316-28.774a6.377,6.377,0,0,0-12.627-1.435,6.084,6.084,0,0,0-8.489,5.4l-.594,16.691-13.521,11.775a14.054,14.054,0,0,0-4.833,10.613V165.3h-2.867a1.852,1.852,0,0,0-1.853,1.851V180.6a1.852,1.852,0,0,0,1.851,1.853h31.932a1.853,1.853,0,0,0,1.853-1.853V167.153a1.853,1.853,0,0,0-1.853-1.853H334.64c4.572-4.607,11.858-13.763,12.721-25.932m-11.537,39.384H307.6V169.01h28.223Zm-2.164-66.384a2.386,2.386,0,0,1,2.072,1.224l-.838,16.478a6.932,6.932,0,0,0-4.155-.608l.53-14.778a2.385,2.385,0,0,1,2.391-2.316m-21.34,41.271a10.351,10.351,0,0,1,3.557-7.817l13.655-11.894a3.434,3.434,0,0,1,4.844.3l.011.014a3.446,3.446,0,0,1-.314,4.864l0,0L319.3,152.044a1.853,1.853,0,0,0,2.436,2.79L336.51,141.9a7.14,7.14,0,0,0,1.9-8.088l1.2-23.511a2.682,2.682,0,0,1,5.36.2c-.1,4.462-.43,16.18-1.309,28.6-1,14.134-12.059,24.146-14.482,26.183H312.321Z" transform="translate(458.079 1987.545)" fill="#757575"/>
      <path id="Path_28" data-name="Path 28" d="M14.041,165.3H11a1.853,1.853,0,0,0-1.853,1.853V180.6A1.853,1.853,0,0,0,11,182.454H42.935a1.852,1.852,0,0,0,1.851-1.853V167.149a1.852,1.852,0,0,0-1.853-1.851H40.067V153.639a14.054,14.054,0,0,0-4.833-10.613L21.713,131.251l-.594-16.691a6.084,6.084,0,0,0-8.489-5.4A6.377,6.377,0,0,0,0,110.593c.1,4.484.433,16.277,1.316,28.774.863,12.168,8.149,21.325,12.721,25.932m-1.184,3.71H41.08v9.743H12.857Zm4.555-54.324.529,14.778a6.933,6.933,0,0,0-4.155.608l-.838-16.478a2.382,2.382,0,0,1,4.463,1.092m18.948,50.6H19.507c-2.423-2.038-13.48-12.05-14.482-26.184-.879-12.42-1.208-24.139-1.309-28.6a2.682,2.682,0,1,1,5.36-.2l1.2,23.511a7.14,7.14,0,0,0,1.9,8.088l14.778,12.934a1.853,1.853,0,0,0,2.436-2.789L14.61,139.112l0,0a3.446,3.446,0,0,1-.314-4.863l.011-.014a3.434,3.434,0,0,1,4.844-.3L32.8,145.822a10.352,10.352,0,0,1,3.557,7.817Z" transform="translate(695.999 1987.546)" fill="#757575"/>
    </g>
  </g>
</svg>
