<svg xmlns="http://www.w3.org/2000/svg" width="105.019" height="100.917" viewBox="0 0 105.019 100.917">
  <g id="Group_37" data-name="Group 37" transform="translate(-1528 -5072)">
    <path id="Path_46" data-name="Path 46" d="M457.784,411.535a1.87,1.87,0,0,1-1.868-1.868,17.239,17.239,0,0,0-7.582-14.282,1.868,1.868,0,1,1,2.1-3.092,20.97,20.97,0,0,1,9.223,17.374,1.87,1.87,0,0,1-1.868,1.868" transform="translate(1173.366 4761.381)" fill="#757575"/>
    <path id="Path_47" data-name="Path 47" d="M305.725,411.536a1.87,1.87,0,0,1-1.868-1.868,20.97,20.97,0,0,1,9.223-17.374,1.868,1.868,0,1,1,2.1,3.092,17.239,17.239,0,0,0-7.582,14.282,1.87,1.87,0,0,1-1.868,1.868" transform="translate(1287.207 4761.38)" fill="#757575"/>
    <path id="Path_48" data-name="Path 48" d="M59.685,219.948a6.368,6.368,0,0,1-6.361-6.361V173.97l-5.641,5.641a1.868,1.868,0,0,1-2.641-2.642l10.15-10.15,10.15,10.15a1.868,1.868,0,1,1-2.642,2.642L57.06,173.97v39.617a2.628,2.628,0,0,0,2.625,2.625H96.952a1.868,1.868,0,0,1,0,3.736Z" transform="translate(1492.739 4939.804)" fill="#e78625"/>
    <path id="Path_49" data-name="Path 49" d="M358.923,284.093a12.049,12.049,0,1,0,12.049,12.049,12.063,12.063,0,0,0-12.049-12.049m0,20.362a8.313,8.313,0,1,1,8.313-8.313,8.323,8.323,0,0,1-8.313,8.313" transform="translate(1253.118 4846.869)" fill="#757575"/>
    <path id="Path_50" data-name="Path 50" d="M223.026,120.684a1.868,1.868,0,0,1,2.642-2.642l5.641,5.641V100.441a2.628,2.628,0,0,0-2.625-2.625h-39.1a1.868,1.868,0,1,1,0-3.736h39.1a6.368,6.368,0,0,1,6.361,6.361v23.242l5.641-5.641a1.868,1.868,0,0,1,2.642,2.642l-10.15,10.15Z" transform="translate(1379.245 4997.446)" fill="#e78625"/>
    <path id="Path_51" data-name="Path 51" d="M153.931,127.442a1.87,1.87,0,0,1-1.868-1.868,17.239,17.239,0,0,0-7.583-14.282,1.868,1.868,0,1,1,2.1-3.092,20.972,20.972,0,0,1,9.222,17.374,1.87,1.87,0,0,1-1.868,1.868" transform="translate(1414.155 4986.512)" fill="#757575"/>
    <path id="Path_52" data-name="Path 52" d="M1.868,127.442A1.87,1.87,0,0,1,0,125.574,20.971,20.971,0,0,1,9.222,108.2a1.868,1.868,0,0,1,2.1,3.092,17.239,17.239,0,0,0-7.582,14.282,1.87,1.87,0,0,1-1.868,1.868" transform="translate(1528 4986.512)" fill="#757575"/>
    <path id="Path_53" data-name="Path 53" d="M55.067,0A12.049,12.049,0,1,0,67.116,12.049,12.063,12.063,0,0,0,55.067,0m0,20.362a8.313,8.313,0,1,1,8.313-8.313,8.323,8.323,0,0,1-8.313,8.313" transform="translate(1493.91 5072)" fill="#757575"/>
    <rect id="Rectangle_94" data-name="Rectangle 94" width="105.018" height="100.917" transform="translate(1528 5072)" fill="none"/>
  </g>
</svg>
