<svg xmlns="http://www.w3.org/2000/svg" width="93.725" height="104.949" viewBox="0 0 93.725 104.949">
  <g id="Group_39" data-name="Group 39" transform="translate(-706 -5068.122)">
    <path id="Path_35" data-name="Path 35" d="M67.426,34.066H15.415A5.415,5.415,0,0,0,10,39.481v74.64a5.416,5.416,0,0,0,5.415,5.416H69.063a5.416,5.416,0,0,0,5.415-5.416V68.182" transform="translate(698 5040.497)" fill="none" stroke="#757575" stroke-linecap="round" stroke-linejoin="round" stroke-width="4"/>
    <rect id="Rectangle_92" data-name="Rectangle 92" width="36.973" height="8.666" transform="translate(721.752 5090.767)" fill="rgba(0,0,0,0)" stroke="#e78625" stroke-linecap="round" stroke-linejoin="round" stroke-width="4"/>
    <line id="Line_14" data-name="Line 14" x2="36.973" transform="translate(721.752 5110.672)" fill="none" stroke="#e78625" stroke-linecap="round" stroke-linejoin="round" stroke-width="4"/>
    <line id="Line_15" data-name="Line 15" x2="36.973" transform="translate(721.752 5120.404)" fill="none" stroke="#e78625" stroke-linecap="round" stroke-linejoin="round" stroke-width="4"/>
    <line id="Line_16" data-name="Line 16" x2="36.973" transform="translate(721.752 5130.136)" fill="none" stroke="#e78625" stroke-linecap="round" stroke-linejoin="round" stroke-width="4"/>
    <line id="Line_17" data-name="Line 17" x2="36.973" transform="translate(721.752 5139.868)" fill="none" stroke="#e78625" stroke-linecap="round" stroke-linejoin="round" stroke-width="4"/>
    <line id="Line_18" data-name="Line 18" y2="10.422" transform="translate(786.456 5108.224)" fill="none" stroke="#757575" stroke-linecap="round" stroke-linejoin="round" stroke-width="4"/>
    <path id="Path_36" data-name="Path 36" d="M150.215,373.437V401.9a5.415,5.415,0,0,1-5.416,5.416H91.153a5.416,5.416,0,0,1-5.416-5.416V396.89" transform="translate(636.241 4763.759)" fill="none" stroke="#757575" stroke-linecap="round" stroke-linejoin="round" stroke-width="4"/>
    <line id="Line_19" data-name="Line 19" transform="translate(786.456 5127.883)" fill="none" stroke="#757575" stroke-linecap="round" stroke-linejoin="round" stroke-width="4"/>
    <path id="Path_37" data-name="Path 37" d="M323.851,29.5a19.5,19.5,0,1,1-19.5-19.5A19.5,19.5,0,0,1,323.851,29.5Z" transform="translate(473.874 5060.122)" fill="rgba(0,0,0,0)" stroke="#e78625" stroke-linecap="round" stroke-linejoin="round" stroke-width="4"/>
    <line id="Line_20" data-name="Line 20" y2="14.03" transform="translate(778.234 5086.938)" fill="none" stroke="#e78625" stroke-linecap="round" stroke-linejoin="round" stroke-width="4"/>
    <path id="Path_38" data-name="Path 38" d="M383.495,56.277a2.052,2.052,0,1,1-2.052-2.052,2.052,2.052,0,0,1,2.052,2.052" transform="translate(396.783 5024.059)" fill="#e78625"/>
  </g>
</svg>
