<svg xmlns="http://www.w3.org/2000/svg" width="101.987" height="102" viewBox="0 0 101.987 102">
  <g id="Group_43" data-name="Group 43" transform="translate(-289 -2068)">
    <path id="Path_19" data-name="Path 19" d="M175.154,158.2a2.541,2.541,0,1,0,0-5.082,20.326,20.326,0,1,0,20.326,20.326,2.541,2.541,0,0,0-5.082,0A15.245,15.245,0,1,1,175.154,158.2" transform="translate(165.017 1945.387)" fill="#757575"/>
    <path id="Path_20" data-name="Path 20" d="M99.649,35.738A2.543,2.543,0,0,0,94.8,37.257,45.921,45.921,0,1,1,64.743,7.2a2.543,2.543,0,0,0,1.52-4.853A50.986,50.986,0,1,0,99.649,35.738" transform="translate(289 2068)" fill="#757575"/>
    <path id="Path_21" data-name="Path 21" d="M118.714,79.487a2.747,2.747,0,0,0-2.541-2.764c-.759-.065-1.518-.129-2.3-.129a35.571,35.571,0,1,0,35.571,35.571,22.414,22.414,0,0,0-.169-2.749,2.552,2.552,0,0,0-5.051.736c.008.053.017.1.028.158.055.616.11,1.226.11,1.854a30.489,30.489,0,1,1-30.491-30.488h0c.63,0,1.241.055,1.855.109l.476.04a2.4,2.4,0,0,0,2.506-2.3c0-.013,0-.024,0-.036" transform="translate(226.296 2006.665)" fill="#757575"/>
    <path id="Path_22" data-name="Path 22" d="M261.763,43.367v9.111L244.722,69.519a2.541,2.541,0,0,0,3.531,3.655c.021-.02.042-.041.062-.063l17.041-17.041h9.111a2.54,2.54,0,0,0,1.8-.745l15.244-15.245a2.54,2.54,0,0,0-1.8-4.337H282.09V28.122a2.54,2.54,0,0,0-4.337-1.8L262.508,41.571a2.538,2.538,0,0,0-.745,1.8m5.082,1.052,10.163-10.163v4.03a2.541,2.541,0,0,0,2.541,2.541h4.029L273.415,50.989h-6.57Z" transform="translate(93.652 2047.514)" fill="#e78625"/>
    <rect id="Rectangle_75" data-name="Rectangle 75" width="101.986" height="102" transform="translate(289 2068)" fill="none"/>
  </g>
</svg>
