<svg xmlns="http://www.w3.org/2000/svg" width="79.068" height="100.917" viewBox="0 0 79.068 100.917">
  <g id="Group_38" data-name="Group 38" transform="translate(-1128 -5072)">
    <path id="Path_39" data-name="Path 39" d="M9.684,100.917C4.344,100.917,0,97.008,0,92.2V22.693a9.818,9.818,0,0,1,9.689-9.338h9.726V8.72c0-.989,1.085-1.432,2.16-1.432h7.4l.122-.336A10.559,10.559,0,0,1,38.995,0c.133,0,.266,0,.4.007h.023c4.936,0,8.794,2.594,10.314,6.939l.119.341h7.521c1.1,0,2.281.448,2.281,1.432v4.635h9.731a9.813,9.813,0,0,1,9.683,9.325V92.2c0,4.8-4.344,8.713-9.683,8.713ZM9.674,17.19A5.96,5.96,0,0,0,3.837,22.63l0,.034V92.2c0,3.053,2.974,4.878,5.849,4.878h59.7c2.875,0,5.848-1.824,5.848-4.878V22.64l0-.011a5.96,5.96,0,0,0-5.837-5.439H59.652v6.662l0,.02a2.177,2.177,0,0,1-2.13,1.816c-.04,0-.08,0-.12,0H21.555c-.042,0-.078,0-.115,0a2.035,2.035,0,0,1-2.024-1.81l0-.014V17.19H9.676l-.007-.255ZM55.818,21.85V11.123H48.423a2.17,2.17,0,0,1-1.957-1.766,7.424,7.424,0,0,0-7.038-5.878h-.036a7.544,7.544,0,0,0-7.15,5.855l-.006.032a2.153,2.153,0,0,1-1.817,1.754l-.018,0H23.25V21.85Z" transform="translate(1128 5072)" fill="#757575"/>
    <path id="Path_40" data-name="Path 40" d="M54.523,222.831a1.676,1.676,0,0,1-1.249-.559l-4.991-5.113a2.038,2.038,0,0,1-.017-2.789,1.925,1.925,0,0,1,1.289-.5,1.9,1.9,0,0,1,1.391.6l3.631,3.766,8.133-7.751a1.917,1.917,0,0,1,2.677.1l.019.02.006,0c.037.034.072.069.105.106a1.8,1.8,0,0,1-.106,2.541l-9.491,9a1.9,1.9,0,0,1-1.335.568h-.063Z" transform="translate(1092.433 4915.504)" fill="#e78625"/>
    <path id="Path_41" data-name="Path 41" d="M140.058,237.275a1.917,1.917,0,0,1,0-3.835h27.909a1.917,1.917,0,0,1,0,3.835Z" transform="translate(1025.049 4898.025)" fill="#e78625"/>
    <path id="Path_42" data-name="Path 42" d="M54.523,146.616a1.676,1.676,0,0,1-1.248-.559l-4.99-5.113a2.038,2.038,0,0,1-.017-2.79,1.924,1.924,0,0,1,1.288-.5,1.9,1.9,0,0,1,1.392.6l3.631,3.766,8.133-7.752a1.918,1.918,0,0,1,2.677.1l.019.019.007.005c.037.034.072.069.105.106a1.8,1.8,0,0,1-.106,2.541l-9.491,9a1.9,1.9,0,0,1-1.335.569h-.063Z" transform="translate(1092.433 4972.305)" fill="#e78625"/>
    <path id="Path_43" data-name="Path 43" d="M140.058,161.059a1.917,1.917,0,0,1,0-3.835h27.909a1.917,1.917,0,0,1,0,3.835Z" transform="translate(1025.049 4954.827)" fill="#e78625"/>
    <path id="Path_44" data-name="Path 44" d="M54.522,299.047a1.677,1.677,0,0,1-1.249-.559l-4.99-5.113a2.037,2.037,0,0,1-.017-2.789,1.926,1.926,0,0,1,1.289-.5,1.9,1.9,0,0,1,1.391.6l3.631,3.765L62.71,286.7a1.918,1.918,0,0,1,2.677.1l.03.029c.032.029.068.065.1.1a1.8,1.8,0,0,1-.106,2.541l-9.491,9a1.9,1.9,0,0,1-1.336.569h-.063Z" transform="translate(1092.434 4858.703)" fill="#e78625"/>
    <path id="Path_45" data-name="Path 45" d="M140.058,313.491a1.917,1.917,0,0,1,0-3.835h27.909a1.917,1.917,0,0,1,0,3.835Z" transform="translate(1025.049 4841.225)" fill="#e78625"/>
    <rect id="Rectangle_93" data-name="Rectangle 93" width="79.067" height="100.917" transform="translate(1128 5072)" fill="none"/>
  </g>
</svg>
