<svg xmlns="http://www.w3.org/2000/svg" width="104.471" height="101.437" viewBox="0 0 104.471 101.437">
  <g id="Group_41" data-name="Group 41" transform="translate(-1528.745 -2070.75)">
    <g id="Group_36" data-name="Group 36" transform="translate(-8)">
      <path id="Path_14" data-name="Path 14" d="M289.553,197.966l7.013-18.807c1.785-4.155,5.395-3.383,5.395-3.383a4.691,4.691,0,0,1,3.979,5.365L299.507,207c-1.662,6.644-6.293,13.123-11.686,17.31l-11.115,7.953v4.69a2.032,2.032,0,0,1-2.032,2.032H256.033V227.2a23.62,23.62,0,0,1,11.542-21.179l15.25-9.788a4.661,4.661,0,0,1,5.9,7.134l-10.27,8.1" transform="translate(1332.979 1930.95)" fill="none" stroke="#757575" stroke-linecap="round" stroke-linejoin="bevel" stroke-width="4.5"/>
      <path id="Path_15" data-name="Path 15" d="M37.53,211.465l-10.27-8.1a4.661,4.661,0,0,1,5.9-7.134l15.25,9.788A23.62,23.62,0,0,1,59.949,227.2v11.789H41.308a2.032,2.032,0,0,1-2.032-2.032v-4.69l-11.115-7.953c-5.393-4.187-10.024-10.666-11.686-17.31l-6.434-25.861a4.691,4.691,0,0,1,3.979-5.365s3.61-.772,5.4,3.383l7.013,18.807" transform="translate(1529 1930.95)" fill="none" stroke="#757575" stroke-linecap="round" stroke-linejoin="bevel" stroke-width="4.5"/>
      <path id="Path_16" data-name="Path 16" d="M192.467,186.838h-2.572a2.032,2.032,0,0,1-2.032-2.032V173.913a7.982,7.982,0,0,1,7.982-7.982h11.724a7.982,7.982,0,0,1,7.982,7.982v10.893a2.032,2.032,0,0,1-2.032,2.032h-2.539" transform="translate(1387.274 1938.75)" fill="none" stroke="#e78625" stroke-linecap="round" stroke-linejoin="bevel" stroke-width="4.5"/>
      <circle id="Ellipse_3" data-name="Ellipse 3" cx="9.421" cy="9.421" r="9.421" transform="translate(1579.559 2085.839)" fill="none" stroke="#e78625" stroke-linecap="round" stroke-linejoin="bevel" stroke-width="4.5"/>
      <path id="Path_17" data-name="Path 17" d="M303.737,102.74H315.92a7.982,7.982,0,0,1,7.982,7.982v10.759a2.165,2.165,0,0,1-2.165,2.165H307.87" transform="translate(1294.942 1989.102)" fill="none" stroke="#e78625" stroke-linecap="round" stroke-linejoin="bevel" stroke-width="4.5"/>
      <circle id="Ellipse_4" data-name="Ellipse 4" cx="9.421" cy="9.421" r="9.421" transform="translate(1595.58 2073)" fill="none" stroke="#e78625" stroke-linecap="round" stroke-linejoin="bevel" stroke-width="4.5"/>
      <path id="Path_18" data-name="Path 18" d="M125.045,123.646H111.178a2.165,2.165,0,0,1-2.165-2.165V110.722a7.982,7.982,0,0,1,7.982-7.982h12.461" transform="translate(1450.104 1989.102)" fill="none" stroke="#e78625" stroke-linecap="round" stroke-linejoin="bevel" stroke-width="4.5"/>
      <circle id="Ellipse_5" data-name="Ellipse 5" cx="9.421" cy="9.421" r="9.421" transform="translate(1563.539 2073)" fill="none" stroke="#e78625" stroke-linecap="round" stroke-linejoin="bevel" stroke-width="4.5"/>
      <line id="Line_10" data-name="Line 10" transform="translate(1588.98 2125.587)" fill="none" stroke="#e78625" stroke-linecap="round" stroke-linejoin="round" stroke-width="4.5"/>
    </g>
  </g>
</svg>
