<svg id="Group_2" data-name="Group 2" xmlns="http://www.w3.org/2000/svg" xmlns:xlink="http://www.w3.org/1999/xlink" width="161.2" height="88.966" viewBox="0 0 161.2 88.966">
  <defs>
    <clipPath id="clip-path">
      <rect id="Rectangle_2" data-name="Rectangle 2" width="161.2" height="88.966" fill="none"/>
    </clipPath>
  </defs>
  <g id="Group_1" data-name="Group 1" clip-path="url(#clip-path)">
    <path id="Path_1" data-name="Path 1" d="M167.587,40.759V35.891H142.355a13.871,13.871,0,0,0,0,27.742h25.231V58.765H142.355a9,9,0,1,1,0-18.006Zm-59.185,0h17.114V35.891h-39.1v4.868h17.12V63.633H108.4Zm-35.215,0a3.3,3.3,0,0,1,3.17,2.437H81.3a8.181,8.181,0,0,0-8.111-7.3H50.4a8.16,8.16,0,0,0,0,16.321H73.186a3.29,3.29,0,0,1,0,6.579H50.4a3.312,3.312,0,0,1-3.17-2.431H42.287a8.195,8.195,0,0,0,7.477,7.279H73.827a8.16,8.16,0,0,0-.641-16.295H50.4a3.292,3.292,0,0,1,0-6.585Z" transform="translate(-6.585 -5.595)" fill="#061e23"/>
    <path id="Path_2" data-name="Path 2" d="M47.523,90.248A47.523,47.523,0,0,1,13.849,9.19,3.283,3.283,0,1,1,18.5,13.824,40.956,40.956,0,0,0,76.522,71.645a3.284,3.284,0,0,1,4.65,4.638,47.2,47.2,0,0,1-33.65,13.965" transform="translate(0 -1.282)" fill="#e27015"/>
    <path id="Path_3" data-name="Path 3" d="M48.645,82.887A41.443,41.443,0,0,1,48.645,0a3.283,3.283,0,1,1,0,6.566,34.877,34.877,0,0,0,0,69.754,3.283,3.283,0,1,1,0,6.566" transform="translate(-1.123 0)" fill="#e0e1e3"/>
    <path id="Path_4" data-name="Path 4" d="M27.93,69.434A3.27,3.27,0,0,1,25.7,68.56,35.426,35.426,0,0,1,49.757,7.128,35.159,35.159,0,0,1,75.078,17.779a3.284,3.284,0,0,1-4.693,4.594A28.859,28.859,0,0,0,20.9,42.555,28.95,28.95,0,0,0,30.161,63.74a3.284,3.284,0,0,1-2.231,5.694" transform="translate(-2.234 -1.111)" fill="#00953a"/>
    <path id="Path_5" data-name="Path 5" d="M177.1,87.229h2.062c-1.165-3.988-2.347-10.92-7.7-10.92s-6.529,6.932-7.7,10.92h2.061c.832-2.735,1.971-9,5.635-9s4.8,6.269,5.634,9M160.82,76.309H158.9V87.23h1.916Zm-18.7,9V78.225h8.016a3.544,3.544,0,1,1,0,7.088ZM155.6,81.77a5.477,5.477,0,0,0-5.461-5.461H140.2v10.92h9.933a5.476,5.476,0,0,0,5.461-5.46m-32.194-1.9,12.385,7.047a.352.352,0,0,0,.364,0,.356.356,0,0,0,.182-.317V76.309h-1.916v7a.357.357,0,0,1-.18.315.362.362,0,0,1-.366,0l-12.31-7.013a.363.363,0,0,0-.545.315l-.073,10.3h1.916V80.191a.361.361,0,0,1,.182-.317.353.353,0,0,1,.361,0m-6.294-3.562h-1.916V87.23h1.916Z" transform="translate(-17.957 -11.896)" fill="#061e23"/>
  </g>
</svg>
