<svg xmlns="http://www.w3.org/2000/svg" width="131.15" height="102" viewBox="0 0 131.15 102">
  <g id="Group_40" data-name="Group 40" transform="translate(-284.333 -5071)">
    <path id="Path_32" data-name="Path 32" d="M12.136,102A12.149,12.149,0,0,1,0,89.865a2.419,2.419,0,0,1,4.838,0,7.306,7.306,0,0,0,7.3,7.3H80.149a7.306,7.306,0,0,0,7.3-7.3V41.284a7.306,7.306,0,0,0-7.3-7.3H12.136a7.306,7.306,0,0,0-7.3,7.3V64.266a2.419,2.419,0,1,1-4.838,0V41.284A12.179,12.179,0,0,1,10.437,29.125l3.68-.52-1.942-3.169a16.711,16.711,0,0,1-2.459-8.478,16.993,16.993,0,0,1,33.987.036,16.548,16.548,0,0,1-2.371,8.459l-2.226,3.7H60.2l-1.174-3.265a12.135,12.135,0,1,1,22.652.486l-1.046,2.559,2.67.719a12.167,12.167,0,0,1,8.98,11.65v5.776l28.353-14.149a7.277,7.277,0,0,1,7.054.33,7.232,7.232,0,0,1,3.457,6.187V91.711a7.268,7.268,0,0,1-10.512,6.513L92.284,84.076v5.789A12.149,12.149,0,0,1,80.149,102ZM92.284,52.5V78.644l29.4,14.7a3.2,3.2,0,0,0,4.625-2.858V40.662a3.2,3.2,0,0,0-4.625-2.858ZM70.433,14.554a7.3,7.3,0,1,0,7.3,7.3,7.306,7.306,0,0,0-7.3-7.3M26.71,4.838A12.155,12.155,0,1,0,38.865,16.993,12.169,12.169,0,0,0,26.71,4.838" transform="translate(284.333 5071)" fill="#757575"/>
    <path id="Path_33" data-name="Path 33" d="M107.376,208.972a2.4,2.4,0,0,1-2.4-2.414V177.4A2.421,2.421,0,0,1,107.4,175a2.388,2.388,0,0,1,1.085.26l29.156,14.578a2.419,2.419,0,0,1-.022,4.295L108.487,208.7a2.469,2.469,0,0,1-1.106.277Zm3.911-27.962a2.268,2.268,0,0,0-2.266,2.266v17.405a2.263,2.263,0,0,0,3.278,2.026L129.7,194a2.265,2.265,0,0,0,0-4.052l-17.406-8.7a2.247,2.247,0,0,0-1.012-.24" transform="translate(208.51 4944.595)" fill="#e78625"/>
    <path id="Path_34" data-name="Path 34" d="M2.421,270.68a2.419,2.419,0,1,1,2.419-2.419,2.422,2.422,0,0,1-2.419,2.419" transform="translate(284.332 4878.978)" fill="#e78625"/>
    <rect id="Rectangle_91" data-name="Rectangle 91" width="131.15" height="102" transform="translate(284.333 5071)" fill="none"/>
  </g>
</svg>
