<svg id="Layer_2" data-name="Layer 2" xmlns="http://www.w3.org/2000/svg" width="57" height="57" viewBox="0 0 57 57">
  <g id="_08.whatsapp" data-name="08.whatsapp">
    <circle id="background" cx="28.5" cy="28.5" r="28.5" fill="#2aa81a"/>
    <g id="icon" transform="translate(14.268 14.155)">
      <path id="Path_9" data-name="Path 9" d="M62.332,42.167a14.045,14.045,0,0,0-22.5,16.25l-1.49,7.235a.529.529,0,0,0,.086.421A.54.54,0,0,0,39,66.3l7.078-1.68A14.045,14.045,0,0,0,62.321,42.167ZM60.119,59.814a11.012,11.012,0,0,1-12.666,2.075l-.991-.492-4.348,1.028V62.37l.916-4.385-.484-.954A11,11,0,0,1,60.119,44.264l.048.067a11,11,0,0,1-.056,15.49Z" transform="translate(-38.299 -37.997)" fill="#fff"/>
      <path id="Path_10" data-name="Path 10" d="M71.46,68.912a4.591,4.591,0,0,1-2.433,2.12c-1.863.447-4.7,0-8.248-3.282l-.045-.041c-3.088-2.883-3.908-5.286-3.725-7.19a4.557,4.557,0,0,1,1.77-2.7,1.013,1.013,0,0,1,1.583.373l1.144,2.585a1.006,1.006,0,0,1-.123,1.028l-.581.745a.987.987,0,0,0-.078,1.1,10.8,10.8,0,0,0,1.963,2.183,11.612,11.612,0,0,0,2.72,1.948.987.987,0,0,0,1.077-.227l.667-.678a1.01,1.01,0,0,1,1.017-.283l2.72.779a1.021,1.021,0,0,1,.574,1.542Z" transform="translate(-50.024 -50.284)" fill="#fff"/>
    </g>
  </g>
</svg>
