<svg id="Layer_3" data-name="Layer 3" xmlns="http://www.w3.org/2000/svg" width="29.862" height="38.056" viewBox="0 0 29.862 38.056">
  <path id="Path_86" data-name="Path 86" d="M29.43,5.1A14.764,14.764,0,0,0,18.352,1.022,15.052,15.052,0,0,0,4.23,16.169,14.868,14.868,0,0,0,8.452,26.315a72.107,72.107,0,0,1,5.992,7.1c.819,1.083,1.609,2.18,2.392,3.282l1.287,1.819a1.268,1.268,0,0,0,2.069,0l1.892-2.663q.866-1.225,1.8-2.425c2.1-2.72,4.4-5.341,6.389-7.547A14.907,14.907,0,0,0,29.43,5.1ZM28.388,24.179c-2.014,2.24-4.362,4.907-6.5,7.684-.643.823-1.268,1.666-1.868,2.516l-.859,1.206-.254-.359c-.8-1.125-1.6-2.242-2.435-3.341a73.886,73.886,0,0,0-6.2-7.341,12.343,12.343,0,0,1-3.5-8.417A12.491,12.491,0,0,1,18.485,3.555c.227-.011.455-.018.681-.018a12.378,12.378,0,0,1,9.22,20.642Z" transform="translate(-4.23 -0.997)" fill="#fff"/>
  <path id="Path_87" data-name="Path 87" d="M17.341,8a6.341,6.341,0,1,0,6.341,6.341A6.341,6.341,0,0,0,17.341,8Zm0,10.146a3.8,3.8,0,1,1,3.8-3.8A3.8,3.8,0,0,1,17.341,18.146Z" transform="translate(-2.413 0.882)" fill="#fff"/>
</svg>
