<svg xmlns="http://www.w3.org/2000/svg" width="20.618" height="26.003" viewBox="0 0 20.618 26.003">
  <g id="Location_icon" data-name="Location icon" transform="translate(0.5 0.503)">
    <path id="Path_46" data-name="Path 46" d="M20.785,3.69a9.7,9.7,0,0,0-7.278-2.676,9.888,9.888,0,0,0-9.277,9.95A9.767,9.767,0,0,0,7,17.629a47.369,47.369,0,0,1,3.937,4.666c.538.712,1.057,1.432,1.571,2.156l.846,1.195a.833.833,0,0,0,1.359,0l1.243-1.75q.569-.8,1.184-1.593c1.377-1.787,2.894-3.508,4.2-4.958A9.793,9.793,0,0,0,20.785,3.69ZM20.1,16.226c-1.323,1.471-2.865,3.223-4.272,5.048-.422.541-.833,1.095-1.227,1.653l-.564.792-.167-.236c-.525-.739-1.054-1.473-1.6-2.195A48.538,48.538,0,0,0,8.2,16.467a8.108,8.108,0,0,1-2.3-5.53,8.206,8.206,0,0,1,7.7-8.26c.149-.007.3-.012.447-.012A8.132,8.132,0,0,1,20.1,16.226Z" transform="translate(-4.23 -0.997)" fill="#757575" stroke="#757575" stroke-width="1"/>
    <path id="Path_47" data-name="Path 47" d="M15.166,8a4.166,4.166,0,1,0,4.166,4.166A4.166,4.166,0,0,0,15.166,8Zm0,6.665a2.5,2.5,0,1,1,2.5-2.5A2.5,2.5,0,0,1,15.166,14.665Z" transform="translate(-5.359 -2.165)" fill="#757575" stroke="#757575" stroke-width="1"/>
  </g>
</svg>
