<svg xmlns="http://www.w3.org/2000/svg" width="26.757" height="26.75" viewBox="0 0 26.757 26.75">
  <g id="Register_icon" data-name="Register icon" transform="translate(0.383 0.375)">
    <path id="Path_29" data-name="Path 29" d="M13.891,16.878A10.254,10.254,0,0,0,3.873,25.043a.928.928,0,0,0,.913,1.1H19.544a.929.929,0,1,1,0,1.857H4.787a2.785,2.785,0,0,1-2.735-3.32.033.033,0,0,1,0-.01A12.149,12.149,0,0,1,9.883,15.7a7.441,7.441,0,1,1,8.018,0,12.014,12.014,0,0,1,2.116.989.928.928,0,0,1-.945,1.6,10.146,10.146,0,0,0-5.181-1.414Zm0-1.857A5.582,5.582,0,1,0,8.31,9.439,5.587,5.587,0,0,0,13.891,15.02Zm8.537,8.337H19.643a.929.929,0,1,1,0-1.857h2.786V18.714a.929.929,0,0,1,1.857,0V21.5h2.786a.929.929,0,1,1,0,1.857H24.286v2.786a.929.929,0,0,1-1.857,0Z" transform="translate(-2 -2)" fill="#757575" stroke="#757575" stroke-width="0.75" fill-rule="evenodd"/>
  </g>
</svg>
