<svg xmlns="http://www.w3.org/2000/svg" width="56.626" height="56.626" viewBox="0 0 56.626 56.626">
  <path id="Send" d="M35.366,19.1,23.783,30.63,13.076,26.769ZM29.857,43.551l7.722-22.342L26,32.792ZM56.626,28.313A28.313,28.313,0,1,1,28.313,0,28.3,28.3,0,0,1,56.626,28.313ZM42.264,14.362a1.521,1.521,0,0,0-1.6-.36L11.686,23.989a2.882,2.882,0,0,0-1.9,2.677v.257A2.909,2.909,0,0,0,11.634,29.6l11.325,4.067,4.067,11.325A2.835,2.835,0,0,0,29.7,46.845h.257a2.882,2.882,0,0,0,2.677-1.9l9.987-28.982a1.521,1.521,0,0,0-.36-1.6Z" fill="#06282e"/>
</svg>
