<?xml version="1.0" encoding="utf-8"?>
<!-- Generator: Adobe Illustrator 28.3.0, SVG Export Plug-In . SVG Version: 6.00 Build 0)  -->
<svg version="1.1" id="Layer_1" xmlns="http://www.w3.org/2000/svg" xmlns:xlink="http://www.w3.org/1999/xlink" x="0px" y="0px"
	 viewBox="0 0 32 32" style="enable-background:new 0 0 32 32;" xml:space="preserve">
<style type="text/css">
	.st0{fill:none;}
	.st1{fill-rule:evenodd;clip-rule:evenodd;fill:#333333;}
	.st2{fill:none;}
</style>
<!-- <circle id="state" class="st0" cx="16" cy="16" r="14"/> -->
<g id="metaphor">
	<path class="st1" d="M10.312,9h4.156c0.362,0,0.656,0.294,0.656,0.656s-0.294,0.656-0.656,0.656h-4.156v4.156
		c0,0.362-0.294,0.656-0.656,0.656S9,14.831,9,14.469v-4.156V9H10.312z"/>
	<path class="st1" d="M23,10.312v4.156c0,0.362-0.294,0.656-0.656,0.656c-0.362,0-0.656-0.294-0.656-0.656v-4.156h-4.156
		c-0.362,0-0.656-0.294-0.656-0.656S17.169,9,17.531,9h4.156H23V10.312z"/>
	<path class="st1" d="M21.688,23h-4.156c-0.362,0-0.656-0.294-0.656-0.656c0-0.362,0.294-0.656,0.656-0.656h4.156v-4.156
		c0-0.362,0.294-0.656,0.656-0.656c0.362,0,0.656,0.294,0.656,0.656v4.156V23H21.688z"/>
	<path class="st1" d="M9,21.688v-4.156c0-0.362,0.294-0.656,0.656-0.656s0.656,0.294,0.656,0.656v4.156h4.156
		c0.362,0,0.656,0.294,0.656,0.656c0,0.362-0.294,0.656-0.656,0.656h-4.156H9V21.688z"/>
</g>
<path id="focus" class="st2" d="M16,31.5c8.56,0,15.5-6.94,15.5-15.5c0-8.56-6.94-15.5-15.5-15.5C7.44,0.5,0.5,7.44,0.5,16
	C0.5,24.56,7.44,31.5,16,31.5z"/>
</svg>
