<svg xmlns="http://www.w3.org/2000/svg" width="26" height="20" fill="none" viewBox="0 0 26 20"><path fill="var(--jato-brand-logo, #1a6affff)" d="M16.719.005H20.8c.236 0 .427.187.427.417v2.62c0 .23.192.416.428.416h3.915c.34 0 .545.366.359.644l-1.707 2.569a.43.43 0 0 1-.36.19H21.62a.423.423 0 0 0-.427.416v6.882c-.033 1.008-.033 1.858 1.29 1.858l1.332-.048a.424.424 0 0 1 .443.417v2.985a.425.425 0 0 1-.367.414c-.857.126-1.452.198-2.246.198-1.71 0-3.584-.094-4.647-1.606-.676-.976-.71-2.141-.71-3.715V.417c0-.23.192-.417.428-.417z" fill-opacity="1"/><path fill="var(--jato-brand-logo, #1a6affff)" d="M9.19 3.183C3.982 2.863-.31 7.05.018 12.13c.27 4.19 3.756 7.587 8.052 7.852 5.208.32 9.5-3.867 9.172-8.948-.271-4.19-3.756-7.588-8.05-7.855zm-.057 12.15c-2.535.312-4.666-1.767-4.348-4.242C5 9.407 6.398 8.044 8.125 7.833c2.534-.313 4.665 1.77 4.347 4.242-.216 1.683-1.613 3.044-3.34 3.257" fill-opacity="1"/></svg>