<svg xmlns="http://www.w3.org/2000/svg" width="220" height="220" fill="none" viewBox="0 0 220 220"><path fill="gray" d="M206 30h-28v-6c0-6.627 5.373-12 12-12h4c6.627 0 12 5.373 12 12z" opacity=".2" fill-opacity="1"/><path fill="gray" fill-opacity=".4" d="M189.284 203.144c0 3.787-39.91 6.857-89.142 6.857S11 206.931 11 203.144s39.91-3.036 89.142-3.036 89.142-.751 89.142 3.036"/><path fill="#8d91a9" d="M178 146.052a1 1 0 1 0 2 0zM43 13h132v-2H43zM32 177V24h-2v153zM175 13h14v-2h-14zm3 27.5v105.552h2V40.5zM43 11c-7.18 0-13 5.82-13 13h2c0-6.075 4.925-11 11-11z" fill-opacity="1"/><path fill="gray" d="M149 183h29v5c0 6.627-5.373 12-12 12h-5c-6.627 0-12-5.373-12-12z" opacity=".2" fill-opacity="1"/><path fill="#8d91a9" d="M179.465 167.531a1 1 0 1 0-2 0zM14.5 178v-1h-1v1zm162.965-10.469V187.5h2v-19.969zm-12.833 31.968H161.5v2h3.132zm-3.132 0h-134v2h134zM15.5 188.5V178h-2v10.5zm-1-9.5H149v-2H14.5zm13 20.499c-3.555 0-6.552-1.065-8.647-2.933-2.082-1.857-3.353-4.577-3.353-8.066h-2c0 4.011 1.479 7.291 4.022 9.558 2.53 2.257 6.032 3.441 9.978 3.441zM177.465 187.5c0 3.736-1.385 6.711-3.639 8.76-2.263 2.058-5.47 3.239-9.194 3.239v2c4.143 0 7.854-1.318 10.54-3.759 2.696-2.451 4.293-5.976 4.293-10.24zm-26.965 0V177h-2v10.5zm-2 0c0 4.207 1.303 7.718 3.626 10.185 2.327 2.472 5.601 3.814 9.374 3.814v-2c-3.283 0-6.009-1.157-7.918-3.185-1.913-2.032-3.082-5.021-3.082-8.814z" fill-opacity="1"/><path stroke="#8d91a9" stroke-width="2" d="M205.998 23.002 205.996 40H179V23c0-6.075 4.925-11 11-11h4.998c6.076 0 11.001 4.926 11 11.002Z" stroke-opacity="1"/><path fill="gray" fill-opacity=".2" fill-rule="evenodd" d="M144.613 105.55a41.8 41.8 0 0 0 3.505-16.816c0-23.183-18.794-41.977-41.977-41.977S64.164 65.551 64.164 88.734s18.794 41.976 41.977 41.976c5.712 0 11.157-1.14 16.12-3.206a40.1 40.1 0 0 1-14.653 2.755c-22.065 0-39.951-17.772-39.951-39.695s17.886-39.695 39.951-39.695c22.064 0 39.951 17.772 39.951 39.695a39.4 39.4 0 0 1-2.946 14.986" clip-rule="evenodd"/><path fill="#8d91a9" fill-rule="evenodd" d="m144.361 120.305 35.128 33.33a4.848 4.848 0 0 1-6.674 7.034l-5.679-5.388c-.855-.693-1.703-1.516-2.534-2.346l-27.151-25.696-2.213 1.811c-8.497 5.988-18.993 9.48-29.489 9.48s-20.992-3.492-29.489-9.48C54.27 112.584 49.27 82.147 65.764 59.693c16.494-22.453 47.982-27.443 69.974-10.977 21.991 16.466 26.49 47.402 10.496 69.357zm3.51-31.363c0 23.157-18.772 41.929-41.929 41.929s-41.93-18.772-41.93-41.93c0-23.156 18.773-41.928 41.93-41.928s41.929 18.772 41.929 41.929" clip-rule="evenodd" fill-opacity="1"/><path fill="url(#jato-illustrations-id-5)" fill-rule="evenodd" d="M114.71 66a3.95 3.95 0 0 0-3.951 3.95v35.161a3.951 3.951 0 0 0 7.901 0v-35.16A3.95 3.95 0 0 0 114.71 66m-16 20.544a3.95 3.95 0 0 1 7.901 0v18.568a3.95 3.95 0 0 1-7.901 0zM86.66 97.556a3.95 3.95 0 0 1 7.902 0v7.556a3.95 3.95 0 1 1-7.902 0z" clip-rule="evenodd"/><defs><linearGradient id="jato-illustrations-id-5" x1="105.923" x2="105.923" y1="61.714" y2="109.062" gradientUnits="userSpaceOnUse"><stop stop-color="#f52c1e" stop-opacity="1"/><stop offset="1" stop-color="#ac24ce" stop-opacity="1"/></linearGradient></defs></svg>