<svg xmlns="http://www.w3.org/2000/svg" width="110" height="110" fill="none" viewBox="0 0 110 110"><path fill="gray" fill-opacity=".4" d="M105 95.5c0 1.657-22.386 2-50 2s-50-.343-50-2 22.5-1.25 50.25-1.75c36.5 1.284 49.75.093 49.75 1.75M100 86.25V55a6 6 0 0 0-6-6v38.5a2.5 2.5 0 0 1-2.5 2.5H85c.42.61.884 1.083 1.25 1.5.83.946 2.393 2.242 3.25 2.5.748.225 1.431 0 2.5 0 5.6 0 8-5 8-7.75"/><path stroke="#8d91a9" stroke-width="1.5" d="M83.75 93.75h8a8 8 0 0 0 8-8V54.5A5.75 5.75 0 0 0 94 48.75" stroke-opacity="1"/><path fill="#8d91a9" fill-rule="evenodd" d="M26.55 12.5q-.217.001-.402.08l-.574-1.386c.301-.125.632-.194.976-.194h1.015v1.5zm5.074 0h-2.03V11h2.03zm4.06 0h-2.03V11h2.03zm4.059 0h-2.03V11h2.03zm4.06 0h-2.03V11h2.03zm4.059 0h-2.03V11h2.03zm4.06 0h-2.03V11h2.03zm4.059 0h-2.03V11h2.03zm4.059 0h-2.03V11h2.03zm4.06 0h-2.03V11h2.03zm4.059 0h-2.03V11h2.03zm4.059 0h-2.03V11h2.03zm4.06 0h-2.03V11h2.03zm4.059 0h-2.03V11h2.03zm4.06 0h-2.03V11h2.03zm4.058 0h-2.03V11h2.03zm3.045 0h-1.015V11H91.5c.344 0 .675.069.976.194l-.574 1.385a1.05 1.05 0 0 0-.402-.079m1.05 1.05q-.001-.217-.08-.402l1.386-.574c.125.301.194.632.194.976v1.026h-1.5zm-66.97-.402q-.078.185-.08.402v.903H24v-.903c0-.344.069-.675.194-.976zm-.08 3.111v1.807H24v-1.807zm67.05 2.423v-2.053h1.5v2.053zm-67.05 1.19v1.806H24v-1.806zm67.05 2.916v-2.053h1.5v2.053zm0 4.105V24.84h1.5v2.053zm0 4.106v-2.053h1.5v2.053zm0 4.105v-2.053h1.5v2.053zm0 4.106v-2.053h1.5v2.053zm0 4.105v-2.052h1.5v2.052zm0 4.106v-2.053h1.5v2.053zm0 4.105v-2.052h1.5v2.052zm0 4.106v-2.053h1.5v2.053zm0 4.105v-2.052h1.5v2.052zm0 4.106V61.79h1.5v2.053zm0 4.106v-2.053h1.5v2.053zm0 4.105v-2.053h1.5v2.053zm0 4.106v-2.053h1.5v2.053zm0 4.105v-2.052h1.5v2.052zm0 4.106v-2.053h1.5v2.053zm0 3.079v-1.026h1.5v1.026c0 .344-.069.675-.194.976l-1.385-.574c.05-.123.079-.258.079-.402M91.5 88.5q.217-.001.402-.08l.574 1.386A2.55 2.55 0 0 1 91.5 90h-.838v-1.5zm-6.7 0h.837V90H84.8zm2.512 0h1.675V90h-1.675z" clip-rule="evenodd" fill-opacity="1"/><path fill="gray" fill-opacity=".2" d="M27.5 94H92c-6.25 0-7.75-5.466-8-8H28.5c-11 0-16.417-6.078-18-9 0 9.389 7.611 17 17 17"/><path fill="#8d91a9" fill-rule="evenodd" d="M23.5 28H16a6 6 0 0 0-6 6v42.5c0 9.941 8.059 18 18 18h64c-1.632-.417-2.898-.91-3.874-1.5C85.58 91.46 85 89.253 85 86V47a6 6 0 0 0-6-6H60.935q0 .757-.054 1.5H79a4.5 4.5 0 0 1 4.5 4.5v39c0 2.325.273 4.487 1.583 6.263q.286.39.626.737H28c-9.113 0-16.5-7.387-16.5-16.5V34a4.5 4.5 0 0 1 4.5-4.5h6.42q.508-.775 1.08-1.5" clip-rule="evenodd" fill-opacity="1"/><path fill="#8d91a9" fill-rule="evenodd" d="M60.904 40a21 21 0 0 0-.066-3h-.965c-1.898 0-3.136-.555-4.373-2l-8-9c-1.237-1.445-3.103-2-5-2H25.282a21 21 0 0 0-2.535 3H42.5c1.581 0 2.97.796 4 2l7.5 8.5c1.443 1.686 3.66 2.5 5.873 2.5z" clip-rule="evenodd" fill-opacity="1"/><path fill="gray" fill-opacity=".2" fill-rule="evenodd" d="M59.307 49.275a20.9 20.9 0 0 0 1.752-8.408c0-11.592-9.397-20.988-20.988-20.988-11.592 0-20.989 9.396-20.989 20.988s9.397 20.988 20.989 20.988c2.855 0 5.578-.57 8.06-1.603a20 20 0 0 1-7.327 1.377c-11.032 0-19.976-8.886-19.976-19.847s8.944-19.848 19.976-19.848 19.975 8.886 19.975 19.848c0 2.651-.523 5.181-1.472 7.493" clip-rule="evenodd"/><path fill="url(#jato-illustrations-id-14)" fill-rule="evenodd" d="m59.18 56.653 17.564 16.664a2.424 2.424 0 1 1-3.337 3.517l-2.84-2.694a17 17 0 0 1-1.266-1.173L55.726 60.12l-1.107.906c-4.248 2.994-9.496 4.74-14.745 4.74s-10.496-1.746-14.744-4.74c-10.996-8.233-13.495-23.451-5.248-34.678s23.991-13.722 34.987-5.489 13.245 23.701 5.248 34.678zm1.755-15.682c0 11.578-9.386 20.964-20.964 20.964S19.007 52.55 19.007 40.971s9.386-20.964 20.964-20.964 20.965 9.386 20.965 20.964" clip-rule="evenodd"/><defs><linearGradient id="jato-illustrations-id-14" x1="6.071" x2="87.608" y1="16.206" y2="75.508" gradientUnits="userSpaceOnUse"><stop stop-color="#0098d9" stop-opacity="1"/><stop offset="1" stop-color="#666cff" stop-opacity="1"/></linearGradient></defs></svg>